<?xml version="1.0" standalone="no"?>
<!DOCTYPE svg PUBLIC "-//W3C//DTD SVG 20010904//EN"
 "http://www.w3.org/TR/2001/REC-SVG-20010904/DTD/svg10.dtd">
<svg version="1.0" xmlns="http://www.w3.org/2000/svg"
 width="400.000000pt" height="400.000000pt" viewBox="0 0 400.000000 400.000000"
 preserveAspectRatio="xMidYMid meet">
<metadata>
Created by potrace 1.11, written by Peter Selinger 2001-2013
</metadata>
<g transform="translate(0.000000,400.000000) scale(0.100000,-0.100000)"
fill="#000000" stroke="none">
<path d="M1870 3744 c-206 -23 -345 -54 -487 -108 -237 -90 -437 -220 -618
-401 -271 -271 -436 -598 -496 -985 -17 -109 -17 -391 0 -500 60 -387 225
-714 496 -985 271 -271 598 -436 985 -496 109 -17 391 -17 500 0 387 60 714
225 985 496 271 271 436 598 496 985 17 109 17 391 0 500 -119 765 -695 1351
-1451 1476 -85 14 -345 26 -410 18z m288 -255 c812 -88 1409 -812 1334 -1616
-34 -364 -173 -665 -425 -922 -410 -418 -1023 -559 -1574 -361 -415 149 -754
488 -903 903 -198 551 -57 1164 361 1574 326 319 760 471 1207 422z"/>
<path d="M1830 3370 c-592 -83 -1057 -512 -1182 -1093 -31 -146 -31 -408 0
-554 118 -549 546 -970 1099 -1080 122 -24 384 -24 506 0 561 112 992 543
1104 1104 24 122 24 384 0 506 -110 551 -534 983 -1075 1097 -111 24 -350 34
-452 20z m260 -502 c96 -30 186 -113 220 -205 27 -73 27 -192 -1 -275 -22 -68
-76 -178 -86 -178 -5 0 -68 48 -106 81 -5 4 7 47 27 97 54 134 45 224 -30 294
-86 80 -227 59 -282 -42 -20 -38 -23 -55 -19 -104 5 -49 13 -70 52 -127 58
-84 117 -140 299 -277 78 -59 194 -158 258 -222 l117 -115 -2 275 c-2 247 9
423 29 493 8 25 59 49 89 41 15 -4 33 -17 42 -31 14 -21 15 -40 3 -176 -16
-190 -16 -493 0 -745 7 -106 10 -196 7 -199 -9 -8 -138 -34 -147 -28 -4 2 -10
17 -13 32 -9 43 -90 177 -153 254 -76 94 -161 170 -329 297 -165 125 -261 214
-322 300 -63 88 -83 146 -83 240 1 238 203 389 430 320z m-636 -329 c21 -61
84 -165 147 -244 78 -96 162 -173 334 -303 165 -125 261 -214 322 -300 62 -86
83 -146 83 -237 0 -216 -164 -364 -372 -335 -121 17 -237 107 -276 213 -29 78
-30 194 -1 279 21 64 76 178 85 178 8 0 114 -82 114 -89 0 -3 -16 -44 -35 -91
-53 -130 -43 -223 31 -292 86 -80 227 -59 282 42 20 38 23 55 19 104 -5 49
-13 70 -52 127 -58 84 -117 140 -299 277 -78 59 -194 158 -258 222 l-117 116
2 -276 c2 -247 -9 -423 -29 -493 -8 -25 -59 -49 -89 -41 -15 4 -33 17 -42 31
-14 21 -14 40 -3 181 16 194 16 474 0 735 -7 109 -9 201 -6 204 7 7 117 32
134 30 8 -1 19 -18 26 -38z"/>
</g>
</svg>
